<svg xmlns="http://www.w3.org/2000/svg" width="360" height="260" viewBox="0 0 360 260">
  <rect width="100%" height="100%" fill="none"/>
  <g fill="none" stroke="#111" stroke-width="3" stroke-linecap="round" stroke-linejoin="round">
    <g id="mesh">
      <line x1="60" y1="140" x2="80" y2="100"/>
      <line x1="80" y1="100" x2="120" y2="80"/>
      <line x1="120" y1="80" x2="170" y2="60"/>
      <line x1="170" y1="60" x2="210" y2="55"/>
      <line x1="210" y1="55" x2="240" y2="80"/>
      <line x1="240" y1="80" x2="270" y2="110"/>
      <line x1="270" y1="110" x2="290" y2="140"/>
      <line x1="60" y1="140" x2="120" y2="80"/>
      <line x1="80" y1="100" x2="170" y2="60"/>
      <line x1="120" y1="80" x2="210" y2="55"/>
      <line x1="170" y1="60" x2="240" y2="80"/>
      <line x1="210" y1="55" x2="270" y2="110"/>
      <line x1="240" y1="80" x2="290" y2="140"/>
      <line x1="60" y1="140" x2="130" y2="120"/>
      <line x1="130" y1="120" x2="110" y2="150"/>
      <line x1="110" y1="150" x2="90" y2="180"/>
      <line x1="90" y1="180" x2="120" y2="190"/>
      <line x1="120" y1="190" x2="150" y2="200"/>
      <line x1="150" y1="200" x2="170" y2="220"/>
      <line x1="170" y1="110" x2="130" y2="120"/>
      <line x1="170" y1="110" x2="210" y2="130"/>
      <line x1="210" y1="130" x2="250" y2="150"/>
      <line x1="250" y1="150" x2="290" y2="140"/>
      <line x1="170" y1="110" x2="120" y2="80"/>
      <line x1="170" y1="110" x2="170" y2="60"/>
      <line x1="210" y1="130" x2="210" y2="55"/>
      <line x1="130" y1="120" x2="170" y2="110"/>
      <line x1="110" y1="150" x2="170" y2="110"/>
      <line x1="110" y1="150" x2="210" y2="130"/>
      <line x1="120" y1="190" x2="200" y2="200"/>
      <line x1="200" y1="200" x2="230" y2="180"/>
      <line x1="230" y1="180" x2="260" y2="170"/>
      <line x1="260" y1="170" x2="285" y2="155"/>
      <line x1="150" y1="200" x2="200" y2="200"/>
      <line x1="170" y1="220" x2="200" y2="200"/>
      <line x1="210" y1="130" x2="200" y2="200"/>
      <line x1="250" y1="150" x2="230" y2="180"/>
      <line x1="170" y1="60" x2="210" y2="130"/>
      <line x1="270" y1="110" x2="260" y2="170"/>
      <line x1="150" y1="200" x2="182" y2="228"/>
      <line x1="182" y1="228" x2="200" y2="200"/>
      <line x1="170" y1="220" x2="182" y2="228"/>
      <line x1="110" y1="150" x2="150" y2="200"/>
    </g>
  </g>
  <g fill="#111" stroke="none">
    <circle cx="60" cy="140" r="3"/><circle cx="80" cy="100" r="3"/><circle cx="120" cy="80" r="3"/>
    <circle cx="170" cy="60" r="3"/><circle cx="210" cy="55" r="3"/><circle cx="240" cy="80" r="3"/>
    <circle cx="270" cy="110" r="3"/><circle cx="290" cy="140" r="3"/><circle cx="250" cy="150" r="3"/>
    <circle cx="210" cy="130" r="3"/><circle cx="170" cy="110" r="3"/><circle cx="130" cy="120" r="3"/>
    <circle cx="110" cy="150" r="3"/><circle cx="90" cy="180" r="3"/><circle cx="120" cy="190" r="3"/>
    <circle cx="150" cy="200" r="3"/><circle cx="170" cy="220" r="3"/><circle cx="182" cy="228" r="3"/>
    <circle cx="200" cy="200" r="3"/><circle cx="230" cy="180" r="3"/><circle cx="260" cy="170" r="3"/><circle cx="285" cy="155" r="3"/>
  </g>
</svg>
